<?xml version="1.0" encoding="UTF-8"?>
<svg xmlns="http://www.w3.org/2000/svg" xmlns:xlink="http://www.w3.org/1999/xlink" version="1.1" id="Layer_1" x="0px" y="0px" width="2136px" height="500px" viewBox="0 0 2136 500" xml:space="preserve">
<g>
	<path fill="#FFFFFF" d="M771.45,184.8c-0.99-1.14-2.07-2.48-3.23-4.01c-1.17-1.52-2.57-3.24-4.23-5.16   c-3.32-3.81-7.8-7.25-13.44-10.32c-5.65-3.04-13.77-4.58-24.39-4.58c-23.22,0-40.88,9.36-52.99,28.07   c-12.11,18.73-18.16,39.35-18.16,61.89v0.86v0.86c0.33,19.87,6.47,38.01,18.41,54.44c11.95,16.42,29.53,24.63,52.75,24.63   c24.22,0,40.55-6.6,49.02-19.77c8.47-13.18,15.34-31.6,20.66-55.29c0-0.37,0.08-0.66,0.25-0.86c0.16-0.18,0.25-0.47,0.25-0.85   l39.31,3.43v10.89c0,5.72-0.59,11.65-1.74,17.76c-1.17,6.11-2.91,12.22-5.22,18.32c-6.97,17.58-19,33.63-36.08,48.14   c-17.09,14.52-39.23,21.77-66.44,21.77c-32.18,0-59.05-11.65-80.61-34.95c-21.57-23.3-32.35-53.09-32.35-89.38   c0-39.35,9.13-69.51,27.37-90.53c18.24-21.01,38.15-34.39,59.72-40.12c4.64-1.14,9.03-2,13.19-2.57c4.14-0.57,8.37-0.86,12.68-0.86   c24.55,0,45.61,7.83,63.2,23.49c17.58,15.67,31.85,34.75,42.79,57.3l-149.28,92.82l-17.42-36.09L771.45,184.8z"></path>
	<path fill="#FFFFFF" d="M853.56,160.17v-40.12c17.58,0.39,33.84,4.87,48.76,13.47c14.93,8.59,26.71,23.02,35.33,43.25   c4.64-12.98,11.2-23.2,19.66-30.65c8.46-7.45,17.33-13.08,26.62-16.9c7.96-3.44,15.75-5.74,23.39-6.87   c7.62-1.14,13.93-1.71,18.91-1.71v39.54c-17.58,2.29-33.26,9.93-47.02,22.91c-13.77,12.99-20.65,32.86-20.65,59.58   c0,19.87,3.73,35.34,11.19,46.41c7.47,11.08,15.68,19.29,24.64,24.64c6.3,3.82,12.43,6.4,18.41,7.74   c5.97,1.35,10.45,2.01,13.43,2.01v43.53c-18.25,0.4-33.42-3.04-45.53-10.3c-12.11-7.26-21.65-15.08-28.61-23.5   c-3.32-3.81-6.15-7.64-8.45-11.45c-2.33-3.81-4.32-7.26-5.98-10.32c-8.63,19.86-20.4,34.19-35.33,42.98   c-14.93,8.79-31.01,13.17-48.26,13.17l-0.5-44.69c15.92,0.39,29.77-6.02,41.55-19.19c11.77-13.18,19.48-27.6,23.14-43.26   c0.67-3.05,1.16-6.02,1.49-8.88c0.32-2.86,0.49-5.82,0.49-8.89c0-3.05-0.17-6.2-0.49-9.46c-0.33-3.24-0.83-6.38-1.49-9.45   c-3.32-14.13-10.29-27.3-20.9-39.53c-10.62-12.23-25.05-20.06-43.29-23.5L853.56,160.17z"></path>
	<path fill="#FFFFFF" d="M1219.29,224.91v-1.15c-0.33-15.66-5.71-30.08-16.17-43.26c-10.45-13.18-28.46-19.77-54-19.77   c-3.98,0-8.63,0.56-13.94,1.72c-5.3,1.13-10.61,3.25-15.91,6.29c-9.95,4.98-19.09,13.29-27.37,24.93   c-8.3,11.66-12.94,27.99-13.94,48.99c0,28.28,6.96,49,20.89,62.16c13.94,13.19,29.36,20.54,46.27,22.07c1,0.39,2.17,0.56,3.48,0.56   h3.98c6.97,0,13.27-1.33,18.91-4c5.64-2.67,11.28-6.3,16.92-10.89c2.64-2.66,5.3-5.44,7.96-8.31c2.65-2.86,5.48-6.02,8.46-9.45   v56.15c-6.97,6.5-14.68,11.45-23.15,14.9c-8.46,3.44-20.48,5.16-36.08,5.16h-6.47c-26.55,0-49.76-11.76-69.66-35.25   c-19.91-23.49-29.86-54.52-29.86-93.11c0-35.13,9.53-64.92,28.62-89.37c19.07-24.45,47.19-36.67,84.33-36.67   c35.16,0,62.21,10.88,81.12,32.65c18.91,21.77,28.36,45.85,28.36,72.21v145.52h-42.8V224.91z"></path>
	<path fill="#FFFFFF" d="M1301.91,216.89c0-27.87,8.36-52.23,25.12-73.06c16.75-20.81,40.22-31.23,70.41-31.23   c4.64,0,10.28,0.67,16.92,2c6.63,1.35,13.44,3.73,20.41,7.17c12.6,6.11,24.13,15.86,34.58,29.23   c10.46,13.37,15.68,32.08,15.68,56.15v159.84h-42.3V220.89v-1.14c-0.33-15.66-4.23-30.08-11.7-43.26   c-7.46-13.17-19.82-19.77-37.07-19.77c-16.25,0-28.86,6.11-37.81,18.34c-8.96,12.23-14.28,26.35-15.92,42.4v149.53h-38.32V216.89z"></path>
	<path fill="#FFFFFF" d="M1737.81,10.04v238.93c0,7.26-0.93,15.57-2.73,24.92c-1.84,9.37-4.58,19-8.21,28.94   c-7.31,18.33-18.59,34.95-33.84,49.84c-15.26,14.9-35.5,22.35-60.71,22.35h-3.98c-36.16-1.92-62.54-13.59-79.12-35.04   c-16.59-21.43-26.37-44.97-29.36-70.63c-0.33-3.06-0.59-6.22-0.75-9.48c-0.17-3.24-0.25-6.41-0.25-9.47v-1.14   c0-0.4-0.16-0.77-0.5-1.17v-1.14c0-0.77-0.08-1.44-0.25-2c-0.17-0.58-0.25-1.07-0.25-1.45c0-31.77,7.04-57.33,21.15-76.66   c14.09-19.35,29.77-32.64,47.03-39.91c5.3-2.29,10.52-4.02,15.67-5.17c5.14-1.14,10.2-1.73,15.18-1.73   c19.57,0,33.75,1.64,42.54,4.87c8.79,3.25,15.84,6.97,21.15,11.17v48.7c-1-0.77-2.24-1.62-3.74-2.58   c-1.49-0.95-3.23-2.01-5.22-3.15c-6.31-3.44-13.86-6.69-22.65-9.74c-8.78-3.06-17.99-4.59-27.62-4.59c-1.33,0-2.74,0.09-4.22,0.28   c-1.5,0.21-2.92,0.29-4.23,0.29c-14.28,2.69-27.3,11.08-39.07,25.22c-11.78,14.13-17.66,33.23-17.66,57.29   c0,0.39,0.08,0.87,0.24,1.44c0.17,0.56,0.26,1.23,0.26,2c0,0.77,0.07,1.43,0.25,2.01c0.16,0.57,0.25,1.05,0.25,1.44   c2.32,23.3,8.03,40.3,17.17,50.99c9.12,10.69,18.82,17.77,29.11,21.2c4.97,1.92,9.96,3.16,14.93,3.73   c4.98,0.56,9.45,0.86,13.44,0.86c22.55,0,38.65-10.51,48.27-31.51c9.61-21.01,14.43-45.83,14.43-74.49V10.04H1737.81z"></path>
	<path fill="#FFFFFF" d="M1953.77,224.91v-1.15c-0.34-15.66-5.72-30.08-16.18-43.26c-10.44-13.18-28.45-19.77-54-19.77   c-3.96,0-8.62,0.56-13.92,1.72c-5.31,1.13-10.63,3.25-15.92,6.29c-9.95,4.98-19.08,13.29-27.37,24.93   c-8.3,11.66-12.93,27.99-13.94,48.99c0,28.28,6.97,49,20.9,62.16c13.93,13.19,29.36,20.54,46.28,22.07   c0.99,0.39,2.16,0.56,3.47,0.56h3.98c6.97,0,13.27-1.33,18.91-4c5.64-2.67,11.27-6.3,16.91-10.89c2.66-2.66,5.31-5.44,7.97-8.31   c2.65-2.86,5.48-6.02,8.46-9.45v56.15c-6.97,6.5-14.68,11.45-23.15,14.9c-8.45,3.44-20.48,5.16-36.08,5.16h-6.47   c-26.55,0-49.76-11.76-69.67-35.25c-19.9-23.49-29.85-54.52-29.85-93.11c0-35.13,9.53-64.92,28.61-89.37   c19.07-24.45,47.18-36.67,84.34-36.67c35.16,0,62.21,10.88,81.12,32.65c18.91,21.77,28.36,45.85,28.36,72.21v145.52h-42.8V224.91z"></path>
	<path fill="#FFFFFF" d="M2066.23,120.05v24.07c1-1.53,2.24-3.25,3.73-5.16c1.5-1.91,3.07-3.81,4.73-5.73   c4.64-5.34,10.61-10.11,17.92-14.32c7.29-4.2,15.93-6.31,25.88-6.31l14.92-0.58v44.13h-10.45c-16.59,2.67-28.86,9.36-36.83,20.05   c-7.96,10.7-13.27,22.16-15.91,34.38c-2,8.42-3.16,16.53-3.48,24.36c-0.34,7.83-0.5,14.42-0.5,19.77v112.28h-38.82V120.05H2066.23z   "></path>
	<rect x="528.62" y="6.04" fill="#FFFFFF" width="42.29" height="360.95"></rect>
	<path fill="#FFFFFF" d="M636.16,492.57c-4.14,1.7-12.26,3.68-21.95,3.68c-24.19,0-39.95-13.87-39.95-35.27   c0-20.67,15.92-36.8,43.13-36.8c7.15,0,14.48,1.41,18.94,3.24l-3.5,13.04c-3.19-1.28-7.8-2.69-14.8-2.69   c-14.96,0-23.87,9.76-23.71,22.37c0,14.14,10.34,22.23,23.71,22.23c6.84,0,11.61-1.28,15.44-2.69L636.16,492.57z"></path>
	<path fill="#FFFFFF" d="M822.69,459.58c0,25.35-20.06,36.68-39.79,36.68c-21.96,0-38.82-13.47-38.82-35.55   c0-22.65,16.7-36.52,40.1-36.52C807.25,424.19,822.69,438.62,822.69,459.58 M764.27,460.29c0,13.31,7.32,23.35,19.27,23.35   c11.13,0,18.93-9.77,18.93-23.64c0-10.76-5.41-23.08-18.78-23.08C769.85,436.93,764.27,448.81,764.27,460.29"></path>
	<path fill="#FFFFFF" d="M938.01,478.69c4.46,2.41,12.89,4.95,19.9,4.95c8.59,0,12.41-3.11,12.41-7.64c0-4.67-3.18-7.08-12.73-10.06   c-15.12-4.67-21.48-12.03-21.32-20.11c0-12.16,11.3-21.65,29.29-21.65c8.59,0,16.06,1.98,20.52,4.11l-3.82,12.31   c-3.33-1.69-9.54-3.95-16.39-3.95c-7,0-10.83,2.96-10.83,7.2c0,4.4,3.67,6.52,13.54,9.63c14,4.53,20.53,10.91,20.69,21.09   c0,12.47-10.98,21.67-31.51,21.67c-9.38,0-17.83-2.14-23.56-4.96L938.01,478.69z"></path>
	<path fill="#FFFFFF" d="M1099.07,446.27c0-7.94-0.16-14.58-0.64-20.53h16.88l0.79,10.2h0.48c3.82-5.38,10.82-11.75,23.87-11.75   c10.2,0,18.15,5.09,21.49,12.74h0.31c2.71-3.82,5.89-6.65,9.55-8.63c4.3-2.69,9.23-4.11,15.6-4.11c12.89,0,25.93,7.78,25.93,29.88   v40.62h-19.09V456.6c0-11.46-4.47-18.27-13.85-18.27c-6.69,0-11.62,4.27-13.68,9.21c-0.48,1.7-0.96,3.82-0.96,5.81v41.34h-19.1   v-39.92c0-9.63-4.29-16.44-13.37-16.44c-7.32,0-12.26,5.1-13.98,9.92c-0.81,1.7-1.14,3.68-1.14,5.66v40.78h-19.09V446.27z"></path>
	<path fill="#FFFFFF" d="M1341.63,465.1c0.46,12.46,11.45,17.83,23.85,17.83c9.09,0,15.61-1.12,21.5-3.11l2.86,12.04   c-6.69,2.41-15.92,4.4-27.06,4.4c-25.14,0-39.94-13.87-39.94-34.97c0-19.11,13.05-37.09,37.87-37.09   c25.3,0,33.42,18.41,33.42,33.55c0,3.25-0.31,5.81-0.63,7.36H1341.63z M1375.69,452.94c0.15-6.38-3.05-16.86-16.09-16.86   c-12.08,0-17.17,9.76-17.97,16.86H1375.69z"></path>
	<path fill="#FFFFFF" d="M1536.21,408.04v17.71h18.63v13.03h-18.63v30.44c0,8.34,2.54,12.75,10.03,12.75c3.66,0,5.42-0.28,7.64-0.86   l0.32,13.31c-2.87,0.99-7.96,1.84-14.16,1.84c-7.17,0-13.21-2.27-16.87-5.81c-4.14-3.96-6.05-10.19-6.05-19.26v-32.41h-11.13   v-13.03h11.13v-12.75L1536.21,408.04z"></path>
	<path fill="#FFFFFF" d="M1684.23,406.5c0,5.24-4.3,9.34-11.14,9.34c-6.51,0-10.82-4.11-10.82-9.34c0-5.39,4.45-9.49,10.98-9.49   C1679.93,397,1684.08,401.11,1684.23,406.5 M1663.4,425.74h19.73v68.95h-19.73V425.74z"></path>
	<path fill="#FFFFFF" d="M1859.92,492.57c-4.12,1.7-12.25,3.68-21.96,3.68c-24.18,0-39.95-13.87-39.95-35.27   c0-20.67,15.9-36.8,43.13-36.8c7.17,0,14.47,1.41,18.95,3.24l-3.5,13.04c-3.19-1.28-7.8-2.69-14.8-2.69   c-14.96,0-23.87,9.76-23.71,22.37c0,14.14,10.34,22.23,23.71,22.23c6.84,0,11.61-1.28,15.43-2.69L1859.92,492.57z"></path>
	<path fill="#FFFFFF" d="M1972.27,478.69c4.45,2.41,12.88,4.95,19.9,4.95c8.58,0,12.41-3.11,12.41-7.64   c0-4.67-3.19-7.08-12.74-10.06c-15.11-4.67-21.48-12.03-21.33-20.11c0-12.16,11.31-21.65,29.29-21.65c8.6,0,16.08,1.98,20.54,4.11   l-3.82,12.31c-3.34-1.69-9.55-3.95-16.39-3.95c-7.02,0-10.83,2.96-10.83,7.2c0,4.4,3.66,6.52,13.53,9.63   c13.99,4.53,20.52,10.91,20.69,21.09c0,12.47-10.99,21.67-31.53,21.67c-9.38,0-17.82-2.14-23.53-4.96L1972.27,478.69z"></path>
	<path fill-rule="evenodd" clip-rule="evenodd" fill="#FFFFFF" d="M248.11,3.75C112.52,3.75,2.59,113.68,2.59,249.28   c0,135.6,109.93,245.53,245.52,245.53c135.6,0,245.53-109.93,245.53-245.53C493.64,113.68,383.71,3.75,248.11,3.75 M248.11,464.74   c-118.99,0-215.46-96.47-215.46-215.46c0-119,96.47-215.47,215.46-215.47c119,0,215.46,96.47,215.46,215.47   C463.58,368.27,367.11,464.74,248.11,464.74"></path>
	<path fill-rule="evenodd" clip-rule="evenodd" fill="#FFFFFF" d="M440.59,381.05c-32.85-10.29-38.16-8.53-59.14-29.57   c-13.04-13.07-19.25-22.69-26.82-40.56c-6.95-16.44-13-44.04-16.62-64.53c-2.6-14.78-4.12-27.61-6.56-42.31   c-9.83-58.87-23.18-111.36-74.97-124.94c-9.37-2.46-21.85-3.3-34.4-2.65c-4.22,0.22-22.22,2.88-24.99,5.27   c-2.48,2.16,17.48-16.76,44.08-18.38c24.31-1.48,39.43,3.44,53.64,12.38c18.57,11.69,31.26,25.98,37.82,40.57   c12.38,27.51,16.4,43.83,27.06,97.25c2.15,10.78,4.66,22.6,6.45,32.24c5.49,29.64,7.66,56.43,22.19,83.67   C406.75,364.02,427.37,371.32,440.59,381.05"></path>
	<path fill-rule="evenodd" clip-rule="evenodd" fill="#FFFFFF" d="M423.4,406.49c-22.69-2.07-39.58-7.64-55.01-15.12   c-41.48-20.1-63.95-48.13-72.89-96.26c-3.9-21.01-6.88-37.13-8.31-57.78c-1.47-21.26-0.11-43.14-4.81-61.88   c-4.22-16.83-11.93-32.4-23.42-43.08c-11.63-10.8-28.52-17.68-51.14-16.16c-12.49,0.83-24.39,6.33-32.64,12.64   c-4.08,3.12-16.22,19.67-21.28,26.4c-1.78,2.35,8.97-26.93,22.75-39.93c10.83-10.22,28.72-18.68,46.81-19.54   c10.58-0.5,26.3,2.87,32.54,5.61c23.86,10.44,35.54,28.75,44.99,53.32c12.71,32.99,11.94,81.27,19.52,117.79   C336.23,348.03,348.44,371.42,423.4,406.49"></path>
	<path fill-rule="evenodd" clip-rule="evenodd" fill="#FFFFFF" d="M199.3,336.88c-1.66,0.74-3.74-2.03-4.99-3.53   c-5.01-5.97-9.13-20.42-6.77-30.57c3.55-15.18,17.34-26.02,33.51-27.35c28.38-2.32,48.84,15.25,55.57,35.58   c7.1,21.45-1.02,50.95-10.29,65.26c-14.74,22.76-46.7,40.63-85.54,33.81c-33.49-5.88-54.87-26.68-67.62-54.39   c-8.68-18.84-13.46-41.43-7.94-68.2c4.36-21.11,15.44-40.06,29.11-52.32c13.78-12.36,32.64-23.37,57.61-24.69   c28.57-1.52,48.45,11.47,55.85,32.63c0.8,2.26,2.97,8.03,2.35,10c-0.31,1,0.21,0.88-0.89,0c-1.62-1.31-4.03-4.14-1.17-1.17   c-10.95-11.4-29.5-21.88-52.33-18.82c-22.79,3.05-35.77,16.57-42.92,34.1c-4.21,10.3-6.83,21.06-6.17,32.34   c1.33,22.58,12.98,38.58,27.93,49.09c9.35,6.58,25.67,13.29,38.21,6.76c3.43-1.78,6.25-4.21,8.53-7.94c5.17-8.43,7.1-26.41-5-30.27   c-5.6-1.78-12.9,0.84-15.29,4.41C198.85,324.91,197.92,331.94,199.3,336.88"></path>
</g>
</svg>
