<?xml version="1.0" encoding="UTF-8"?><svg id="Layer_1" xmlns="http://www.w3.org/2000/svg" width="157.53" height="49.41" viewBox="0 0 157.53 49.41"><path d="M68.26,49.41c-3.77-2.65-8.36-3.82-12.53-3.65-4.21,.17-6.11,3.31-6.11,3.31-1.91-3.31-5.66-5.35-11.47-5.3-9.38,.11-18.69,4.45-26.07,4.45S-.17,43.77,0,35.88C.3,22.03,12,9.55,20.74,3.93,25.76,.71,29.98-.25,32.73,.05c2.01,.23,4.42,2.55,2.9,5.96-2.24,5.01-5.33,4.59-5.22,2.2,.06-1.55,1.1-2.53,1.88-3.07,.5-.34,1.37-.44,1.82-.45,.44-.37,.78-3.11-2.82-2.21-3.6,.91-7.93,4.44-12.07,9-4.13,4.56-10.56,13.21-12.15,22.27-.74,4.21-.24,11.87,9.72,11.78,8.45-.07,20.91-5.63,32.36-5.53,4.45,.04,8.31,1.23,11.33,3.1,2.97,1.83,6.52,4.49,7.78,6.31m2.71-25.1h1.73s-8.67,12.54-13.58,11.97c-2.73-.31-1.92-3.7-1.92-3.7,0,0-3.85,4.5-7.37,3.6-3.2-.82-1.14-6.15-1.14-6.15-.36,.15-7.29,7.97-12.16,6.09-5.09-1.96-2.46-8.5-1.48-10.47,.82-1.66,1.73-3.27,1.73-3.27,0,0-.78,.22-1.27,.33-.49,.11-1.23,.26-1.23,.26,0,0-2.41,3.92-3.89,5.88-1.47,1.95-7.73,8.68-11.41,7.33-3.69-1.34-2.78-6.5-.7-10.6,3.36-6.65,11.32-14.82,16.12-13.59,4.85,1.23,.84,9.1,.84,9.1,0,0,.96,.13,3.27-1.45,3.34-2.27,7.73-8.38,12.49-7.67,2.23,.33,4.31,2.63,1.47,6.98-.91,1.4-2.44,2.65-3.61,1.41-.73-.76-.1-2.16,.67-3.12,1.08-1.36,2.57-1.18,2.57-1.18,0,0,.78-1.8-1.21-1.77-1.62,.03-5.71,3.8-8.03,7.62-2.12,3.5-5.33,9.46-2.1,10.76,2.96,1.19,8.58-5.49,11.19-8.99,2.61-3.5,8.54-11.45,13.52-11.77,1.71-.12,2.74,1.45,2.74,1.45l.58-.91h4.97s-9.38,15.67-10.11,16.86c-.58,.93-1.34,3.02,.78,1.85,2.13-1.17,6.54-6.85,6.54-6.85m-38.62-1.59c-.09-.03-1.34-.39-2.56-1.17-1.22-.78-1.79-1.94-1.83-2.03-.04-.08-.09-.02-.14,.05-.05,.07-.31,.41-2.09,3.01-1.78,2.61-4.4,7.95-1.94,8.86,1.57,.59,4.23-2.19,5.66-4.02,1.33-1.7,2.91-4.32,2.98-4.48,.06-.16,0-.19-.09-.22m1.97-8.33c-1.31-.99-4.63,1.32-4.65,3.68-.02,2.42,3,3.11,3.38,3.13,0,0,.34,.09,.48-.2,.09-.18,.49-.94,.95-2.13,.46-1.21,1.04-3.56-.17-4.48m25.37,13.04c2.01-2.75,7.55-12.41,7.55-12.41,0,0-.09-.68-.74-.71-.77-.04-2.04,.22-4.59,3.41-2.55,3.18-4.51,5.72-5.95,8.36-1.57,2.88-2.27,4.9-1.36,5.46,.25,.15,.64,.17,.95,.1,.59-.15,1.36-.74,2.42-1.96,.5-.57,1.05-1.33,1.72-2.24m22.37-14.95h-4.72l-2.67,4.32h4.72l2.67-4.32Zm62.01,32.2c-.47,0-.87,.16-1.21,.5-.33,.33-.5,.74-.5,1.21s.17,.89,.5,1.24c.33,.32,.74,.49,1.21,.49s.88-.18,1.21-.49c.34-.35,.5-.76,.5-1.24s-.16-.87-.5-1.21c-.34-.34-.73-.5-1.21-.5m1.99,1.71c0,.56-.19,1.03-.58,1.41-.39,.39-.86,.59-1.41,.59s-1.02-.2-1.41-.59c-.38-.38-.58-.86-.58-1.41s.2-1.02,.59-1.4c.39-.39,.85-.59,1.4-.59s1.02,.2,1.41,.59c.39,.38,.58,.85,.58,1.4m-1.47-.43c0-.16-.05-.27-.15-.32-.08-.06-.26-.09-.46-.09h-.33v.79h.35c.17,0,.29-.02,.37-.04,.14-.07,.22-.17,.22-.34m-1.32-.66h.76c.28,0,.48,.02,.6,.07,.23,.1,.34,.28,.34,.55,0,.2-.07,.34-.22,.43-.07,.05-.18,.09-.31,.12,.17,.02,.3,.09,.37,.21,.07,.11,.12,.23,.12,.34v.16s0,.1,0,.16c0,.07,0,.1,.02,.12v.02h-.35v-.02s-.02,0-.02-.02v-.25c0-.25-.06-.41-.21-.49-.08-.05-.22-.08-.42-.08h-.31v.86h-.39v-2.18Zm8.57-40.59c-3.49,2.25-8.34,4.29-12.99,3.84-1.18,1.22-2.43,2.63-3.71,4.16,8.08,1.59,15.13-3.41,18.89-7.67C156.37,2.39,157.53,.01,157.53,.01c0,0-2.24,2.47-5.7,4.69m-13.83,36.66c-.67,1.07-1.43,3.12,.78,1.85,2.69-1.56,6.52-7.38,6.52-7.38h1.73s-2.28,3.62-5.26,6.91c-2.73,3.02-6.06,5.77-8.4,5.5-2.74-.32-1.88-3.92-1.88-3.92,0,0-3.93,4.17-6.63,3.87-3.65-.4-2.54-4.93-2.54-4.93,0,0-4.14,5.09-6.95,4.93-4.42-.25-3.32-5.65-2.09-9.42,.66-2.02,1.27-3.62,1.27-3.62,0,0-.44,.12-1.38,.25-.5,.07-1.39,.12-1.39,.12,0,0-1.84,3.25-3.31,5.2-1.48,1.96-7.73,8.68-11.42,7.34-3.4-1.25-2.28-6.46-.3-10.6,2.89-6.04,11.02-14.73,15.72-13.59,4.86,1.18,.11,10.06,.11,10.06,0,0,0,.03,.05,.05,.1,.04,.35,.06,.93-.05,.94-.18,1.78-.53,1.78-.53,0,0,4.89-10.24,10.29-16.95,5.4-6.7,16.17-18.25,20.41-15.46,1.03,.68,.56,3.05-.83,5.92-.61,.19-1.25,.37-1.91,.5,.93-1.69,1.55-3.11,1.74-4.11,.63-3.46-7.45,3.84-13.23,11.69-5.77,7.86-9.24,14.97-9.24,14.97,0,0,1.17-.66,2.98-2.12,1.89-1.53,4.5-3.92,7.33-6.86,1.91-1.96,4.15-4.44,6.24-7.21,.62-.03,1.24-.09,1.83-.19-2.33,3.15-4.8,6.03-6.88,8.15-2.29,2.33-4.79,4.84-6.96,6.67-3.45,2.9-6.11,4.55-6.11,4.55,0,0-5.06,10.18-2.32,10.84,1.62,.38,4.81-4.53,4.81-4.53,0,0,4.16-6.36,6.67-9.22,3.42-3.9,6.37-6.15,9.31-6.19,1.72-.03,2.73,1.8,2.73,1.8l.81-1.25h4.98s-9.28,15.75-10.02,16.94m-27.95-6.2c-.09-.03-1.17-.53-2.29-1.46-1.12-.93-1.68-2-1.72-2.08-.04-.08-.1-.02-.14,.05-.05,.07-.25,.24-2.03,2.85-1.77,2.6-4.49,7.98-2.02,8.89,1.57,.58,4.21-2.18,5.64-4.01,1.33-1.71,2.57-3.87,2.64-4.02,.07-.16,0-.2-.07-.22m2.51-4.4c.46-1.2,1.04-3.55-.18-4.48-1.3-.98-4.62,1.33-4.64,3.68-.02,2.43,2.35,3.52,2.91,3.67,.32,.09,.43,.08,.59-.18,.1-.17,.85-1.48,1.31-2.68m28.55-3.33c.1-.17,.14-.34,.14-.34,0,0-.09-.68-.74-.71-.77-.03-1.82,.11-4.56,3.15-2.74,3.03-4.4,5.66-5.84,8.3-1.57,2.88-2.2,5.02-1.3,5.57,.26,.15,.64,.17,.95,.1,.61-.15,1.31-.72,2.37-1.94,.49-.57,1.04-1.38,1.69-2.28,1.81-2.48,6.37-10.27,7.28-11.85m10.72-22.73c-3.49,2.25-8.34,4.29-12.99,3.84-1.18,1.22-2.43,2.63-3.71,4.16,8.08,1.59,15.13-3.41,18.89-7.67C156.37,2.39,157.53,.01,157.53,.01c0,0-2.24,2.47-5.7,4.69m-22.67,5.86c-3.82-1.96-6.6-4.35-9.5-5.84-2.78-1.42-4.56-2.01-6.8-1.71-.37,.05-.92,.22-.92,.22,0,0,1.16,3.94-3.43,10.56-4.65,6.71-8.86,6.67-10.06,4.81-1.25-1.94,.36-5.91,3.07-9.43,2.83-3.69,7.81-6.76,7.81-6.76,0,0-1.59-.97-5.49,1.24-3.8,2.15-10.35,7.27-16.41,15.92-6.06,8.64-7.27,13.4-8.14,17.14-.88,3.74-.08,7.75,4.07,7.75s8.98-6.33,10.35-8.54c2.52-4.1,4.17-10.39,.73-9.52-1.7,.42-3.08,2.31-3.95,4.12-.89,1.86-1.24,3.63-1.24,3.63,0,0-1.44,.51-3.37,1.96-1.93,1.44-3.18,2.82-3.18,2.82,0,0,.01-2.99,2.39-7.84,2.38-4.84,6.76-7.06,9.24-7.26,2.24-.18,5.15,1.71,2.68,8.71-2.46,7.01-9.72,15.5-17.36,15.61-7.04,.1-11.66-8.89-1.86-24.59C88.61,6.24,101.36,.91,105.49,.32c4.14-.6,5.47,1.22,5.47,1.22,0,0,3.46-1.6,7.86-1.3,5.05,.34,8.96,3.91,14.1,6.42-1.34,1.3-2.62,2.65-3.78,3.91m-18.8-6.81s-2.95,1.19-6.39,4.97c-3.44,3.8-5.43,8.04-3.95,9.17,.57,.43,1.87,.5,4.26-1.64,1.85-1.67,3.74-3.85,5.03-6.99,1.53-3.75,1.05-5.47,1.05-5.52" style="fill:#fff;"/></svg>