<?xml version="1.0" encoding="UTF-8"?>
<svg xmlns="http://www.w3.org/2000/svg" xmlns:xlink="http://www.w3.org/1999/xlink" version="1.1" id="Layer_1" x="0px" y="0px" width="770px" height="308px" viewBox="0 0 770 308" xml:space="preserve">
<g>
	<path fill-rule="evenodd" clip-rule="evenodd" fill="#FFFFFF" d="M88.92,36.63c0.61-0.33,1.35-0.54,1.82-1.01   c10.66-10.61,21.31-21.24,31.9-31.92c1.21-1.22,2.4-1.7,4.12-1.7c39.14,0.05,78.29,0.04,117.43,0.04c0.84,0,1.68,0,2.79,0   c0,1.19,0,2.11,0,3.03c0,42.29,0.01,84.59-0.04,126.88c0,1.8,0.51,3.07,1.79,4.32c5.47,5.33,10.84,10.76,16.05,15.96   c-10.92,10.96-21.79,21.86-32.93,33.04c-2.37-2.43-4.98-5.12-7.61-7.79c-2.99-3.02-6.1-5.94-8.97-9.07   c-0.84-0.92-1.48-2.42-1.48-3.65c-0.08-40.01-0.06-80.02-0.06-120.03c0-5.64-1.63-7.25-7.36-7.25c-38.04,0-76.08,0-114.12,0   c-0.91,0-1.82,0-2.73,0C89.32,37.19,89.12,36.91,88.92,36.63z"></path>
	<path fill-rule="evenodd" clip-rule="evenodd" fill="#FFFFFF" d="M19.89,229.16c0-1.22,0-2.14,0-3.07   c0-42.29-0.01-84.58,0.04-126.87c0-1.81-0.53-3.06-1.81-4.31C12.65,89.58,7.27,84.15,2,78.9c10.98-10.94,21.88-21.81,33.02-32.92   c2.91,2.95,6.11,6.18,9.29,9.42c2.92,2.97,6.91,5.51,8.4,9.08c1.46,3.49,0.38,8.05,0.39,12.15c0.01,36.54,0,73.08,0,109.63   c0,5.81,1.65,7.46,7.42,7.46c38.04,0,76.08,0,114.11,0c0.9,0,1.81,0,2.71,0c0.09,0.19,0.18,0.37,0.27,0.56   c-4.35,4.28-8.73,8.54-13.06,12.85c-6.81,6.77-13.61,13.56-20.36,20.4c-1.13,1.14-2.24,1.68-3.9,1.68   c-39.22-0.05-78.44-0.03-117.66-0.03C21.8,229.16,20.96,229.16,19.89,229.16z"></path>
	<path fill-rule="evenodd" clip-rule="evenodd" fill="#FFFFFF" d="M182.28,161.96c-32.59,0-65,0-97.73,0c0-0.92,0-1.76,0-2.59   c0-24.18,0.03-48.36-0.05-72.53c-0.01-1.88,0.62-2.75,2.2-3.59c15.01-7.98,29.98-16.02,44.94-24.1c1.31-0.71,2.3-0.76,3.65-0.03   c15.15,8.2,30.34,16.34,45.55,24.46c1.1,0.59,1.59,1.19,1.59,2.51c-0.04,24.89-0.03,49.77-0.04,74.66   C182.39,161.06,182.34,161.38,182.28,161.96z"></path>
	<path fill-rule="evenodd" clip-rule="evenodd" fill="#FFFFFF" d="M597.53,88.65c0.27,18.95-20.13,36.32-42.66,37.51   c-16.53,0.87-30.6-4.22-41.11-17.4c-17.39-21.81-10.88-63.58,27.83-71.32c11.11-2.22,22.07-1.06,32.13,4.43   C589.37,50.41,597.35,63.73,597.53,88.65z M528.39,81.62c0.04,12.78,10.26,23.23,22.75,23.25c12.56,0.02,22.89-10.55,22.87-23.4   c-0.03-12.93-10.24-23.47-22.78-23.49C538.57,57.96,528.36,68.53,528.39,81.62z"></path>
	<path fill-rule="evenodd" clip-rule="evenodd" fill="#FFFFFF" d="M673.39,94.58c4.36,9.14,8.66,18.14,12.95,27.14   c1.41,2.96,1.15,3.4-2.05,3.41c-6.14,0.02-12.28-0.06-18.42,0.04c-2.49,0.04-3.87-0.97-4.81-3.26c-3.19-7.78-6.6-15.47-9.79-23.26   c-0.66-1.6-1.49-2.11-3.14-2.04c-2.66,0.12-5.32,0.03-8.25,0.03c0,3.37,0,6.49,0,9.61c0,5.28-0.07,10.55,0.03,15.83   c0.04,2.28-0.92,3.1-3.1,3.07c-5.51-0.06-11.02-0.07-16.54,0c-2.27,0.03-3.02-0.99-3.02-3.16c0.04-27.01,0.02-54.02,0.03-81.03   c0-2.66,0.49-3.12,3.21-3.12c13.94-0.01,27.88,0.2,41.81-0.06c15.42-0.29,25.88,12.61,27.68,24.27   C691.91,74.45,686.72,87.96,673.39,94.58z M640,57.8c0,6.32,0,12.57,0,18.72c6.56,0,13.1,0.47,19.53-0.15   c5.18-0.49,8.01-4.67,7.83-9.6c-0.16-4.66-3.35-8.49-8.47-8.87C652.66,57.45,646.37,57.8,640,57.8z"></path>
	<path fill-rule="evenodd" clip-rule="evenodd" fill="#FFFFFF" d="M411.58,81.59c0-13.47,0-26.93,0-40.4c0-2.98,0.35-3.36,3.19-3.36   c11.58,0,23.16-0.2,34.73,0.08c17.29,0.41,29.93,8.39,36.88,24.39c6.31,14.54,6.06,38.26-10.78,52.71   c-6.87,5.9-14.75,9.53-23.77,9.82c-12.51,0.4-25.04,0.21-37.55,0.31c-2.23,0.02-2.73-1.15-2.72-3.15   C411.61,108.52,411.58,95.06,411.58,81.59z M434.32,56.52c0,16.81,0,33.06,0,49.46c4.04,0,7.96,0.13,11.86-0.04   c4.45-0.19,8.41-1.87,11.86-4.71c8.09-6.67,11.14-18.33,7.49-29.29c-2.64-7.93-7.76-13.32-16.36-14.42   C444.35,56.92,439.47,56.85,434.32,56.52z"></path>
	<path fill-rule="evenodd" clip-rule="evenodd" fill="#FFFFFF" d="M313.1,81.6c0-13.39,0-26.77,0-40.16c0-3.34,0.28-3.61,3.66-3.61   c11.34,0,22.68-0.12,34.01,0.05c13.56,0.21,24.76,5.33,32.81,16.58c15.1,21.09,8.56,53.03-13.42,65.46   c-6.61,3.74-13.79,5.19-21.32,5.2c-10.79,0.02-21.57,0.01-32.36,0c-3.08,0-3.39-0.32-3.39-3.37   C313.09,108.37,313.1,94.98,313.1,81.6z M335.77,105.98c4.06,0,7.99,0.15,11.9-0.04c5.15-0.25,9.58-2.36,13.26-5.98   c8.13-7.99,10.01-22.18,4.24-32.36c-2.22-3.92-5.17-7.18-9.52-8.79c-6.42-2.39-13.1-2.06-19.88-1.94   C335.77,73.33,335.77,89.59,335.77,105.98z"></path>
	<path fill-rule="evenodd" clip-rule="evenodd" fill="#FFFFFF" d="M336.81,195.8c-13.59-0.04-24.43-10.96-24.35-24.53   c0.08-13.61,10.98-24.46,24.51-24.42c13.66,0.04,24.53,11.01,24.47,24.7C361.39,185.09,350.47,195.84,336.81,195.8z M319.36,171.38   c0,9.68,7.87,17.61,17.51,17.65c9.75,0.04,17.75-7.95,17.72-17.7c-0.03-9.66-7.93-17.62-17.52-17.68   C327.37,153.6,319.36,161.62,319.36,171.38z"></path>
	<path fill-rule="evenodd" clip-rule="evenodd" fill="#FFFFFF" d="M654.23,160.69c0,7.08,0,13.42,0,19.77   c0,4.09-0.06,8.19,0.03,12.27c0.04,1.86-0.7,2.62-2.51,2.44c-0.47-0.04-0.95-0.05-1.42,0c-2.22,0.26-3.03-0.6-3.01-2.93   c0.09-14.17,0.03-28.33,0.09-42.5c0-0.94,0.65-1.88,1-2.81c1.07,0.44,2.48,0.58,3.17,1.36c9.08,10.35,18.06,20.79,27.06,31.22   c0.29,0.34,0.49,0.77,0.74,1.16c0.17-0.09,0.33-0.19,0.5-0.28c0.03-0.66,0.1-1.32,0.1-1.98c0.01-9.29,0-18.57,0.01-27.86   c0-3.02,0.03-3.04,3.01-3.05c3.95-0.01,3.95-0.01,3.95,4.05c0,13.46,0.03,26.92-0.05,40.37c-0.01,1.27-0.25,3.16-1.06,3.67   c-1.67,1.05-2.74-0.64-3.76-1.86c-8.8-10.49-17.62-20.96-26.43-31.44C655.33,161.95,655.02,161.6,654.23,160.69z"></path>
	<path fill-rule="evenodd" clip-rule="evenodd" fill="#FFFFFF" d="M573.27,176.01c2.93,5.44,5.81,10.75,8.66,16.08   c1.31,2.44,0.91,2.78-1.82,3.15c-3.72,0.5-5.68-0.9-7.08-4.36c-1.77-4.35-4.21-8.43-6.26-12.67c-0.59-1.22-1.24-1.8-2.66-1.75   c-2.73,0.11-5.47,0.03-8.45,0.03c0,5.29,0.05,10.31-0.04,15.32c-0.02,1.07-0.42,2.96-0.88,3.04c-1.79,0.31-3.69,0.09-5.53-0.11   c-0.25-0.03-0.55-1.06-0.55-1.63c-0.03-14.56-0.02-29.12-0.04-43.68c0-1.44,0.66-1.95,2.02-1.94c6.29,0.04,12.6-0.13,18.88,0.09   c6.43,0.23,11.79,4.89,13.34,11.15c1.47,5.96-1.18,12.17-6.68,15.62C575.26,174.94,574.28,175.44,573.27,176.01z M555.89,170.59   c4.4,0,8.57,0.18,12.72-0.05c4.18-0.22,7.4-3.88,7.51-8.03c0.11-4.05-2.84-7.88-6.96-8.2c-4.36-0.35-8.76-0.08-13.27-0.08   C555.89,159.69,555.89,165.01,555.89,170.59z"></path>
	<path fill-rule="evenodd" clip-rule="evenodd" fill="#FFFFFF" d="M472.42,178.96c-2.15,0-4.02-0.03-5.89,0.01   c-1.49,0.04-2.23-0.57-2.07-2.11c0.02-0.23,0-0.47,0-0.71c-0.02-3.66-0.02-3.66,3.55-3.66c3.07,0,6.14,0.04,9.21-0.02   c1.51-0.03,2.11,0.58,2.11,2.09c-0.02,4.96,0.1,9.92,0.02,14.88c-0.01,0.78-0.59,1.9-1.24,2.25c-8.14,4.44-20.89,6.73-30.84-0.72   c-10.98-8.22-13.05-24.05-4.48-34.87c8.54-10.78,24.61-12.41,35-3.59c1.2,1.01,1.58,1.92,0.3,3.08c-0.17,0.16-0.33,0.34-0.49,0.52   c-2.61,2.79-2.61,2.79-5.73,0.66c-6.41-4.37-14.16-4.21-20,0.41c-6.07,4.8-8.35,13.15-5.57,20.45c2.72,7.15,9.47,11.72,16.91,11.14   c2.63-0.21,5.24-0.96,7.79-1.7c0.62-0.18,1.29-1.28,1.36-2.02C472.54,183.13,472.42,181.17,472.42,178.96z"></path>
	<path fill-rule="evenodd" clip-rule="evenodd" fill="#FFFFFF" d="M744.36,153.93c0,4.71,0,9.15,0,13.86c5.36,0,10.62,0,15.87,0   c3.13,0,4.72,2.54,3.26,5.43c-0.28,0.54-1.41,0.9-2.15,0.92c-4.72,0.08-9.45,0.04-14.17,0.04c-0.86,0-1.71,0-2.75,0   c0,4.86,0,9.53,0,14.48c0.78,0.03,1.61,0.1,2.44,0.1c5.83,0.01,11.65-0.01,17.48,0.01c2.68,0.01,3.03,0.41,3.02,3.24   c0,2.76-0.36,3.14-3.11,3.15c-8.11,0.01-16.22-0.04-24.33,0.04c-2,0.02-2.78-0.58-2.77-2.69c0.07-14.09,0.07-28.19,0-42.28   c-0.01-2.01,0.56-2.79,2.67-2.76c8.19,0.1,16.37,0.03,24.56,0.04c2.69,0,2.97,0.33,2.96,3.26c0,2.79-0.33,3.15-3.09,3.16   c-5.75,0.02-11.49,0-17.24,0C746.18,153.93,745.34,153.93,744.36,153.93z"></path>
	<path fill-rule="evenodd" clip-rule="evenodd" fill="#FFFFFF" d="M494.22,164.28c0-4.72,0.07-9.44-0.03-14.16   c-0.04-1.92,0.56-2.68,2.56-2.64c5.08,0.1,4.62-0.34,4.62,4.56c0,8.34-0.05,16.68,0.02,25.02c0.05,5.92,3.26,10.32,8.22,11.57   c7.66,1.93,14.3-3.13,14.43-11.19c0.13-8.97,0.04-17.94,0.04-26.91c0-3.01,0.01-3.01,3.05-3.01c0.79,0,1.67-0.22,2.33,0.07   c0.7,0.31,1.67,1.1,1.67,1.69c0.07,10.15,0.41,20.32-0.15,30.44c-0.54,9.75-9.06,16.44-19.28,16.09   c-9.59-0.33-17.12-7.75-17.44-17.36c-0.15-4.71-0.03-9.44-0.03-14.16C494.24,164.28,494.23,164.28,494.22,164.28z"></path>
	<path fill-rule="evenodd" clip-rule="evenodd" fill="#FFFFFF" d="M632.07,195.17c-1.98,0.52-3.08-0.68-3.9-2.7   c-1.02-2.54-1.7-5.95-3.66-7.17c-2.06-1.28-5.46-0.45-8.28-0.47c-3.77-0.03-7.55,0.08-11.33-0.05c-1.73-0.06-2.73,0.37-3.34,2.09   c-0.79,2.21-1.85,4.33-2.84,6.46c-0.78,1.69-5.79,2.76-6.98,1.38c-0.37-0.43-0.24-1.61,0.06-2.28c2.78-6.24,5.63-12.45,8.47-18.66   c3.75-8.22,7.47-16.45,11.3-24.62c0.43-0.92,1.5-1.54,2.28-2.29c0.69,0.75,1.64,1.39,2.04,2.28c6.42,13.99,12.76,28.01,19.13,42.03   C636.77,195.04,636.68,195.17,632.07,195.17z M613.64,159.98c-2.93,6.58-5.62,12.63-8.35,18.76c5.69,0,11.12,0,16.79,0   C619.27,172.5,616.57,166.51,613.64,159.98z"></path>
	<path fill-rule="evenodd" clip-rule="evenodd" fill="#FFFFFF" d="M387.68,195.83c-5.32-0.15-9.95-1.68-13.93-4.94   c-1.76-1.44-1.58-2.24,0.63-5.16c1.12-1.47,2.06-1,3.39-0.22c2.42,1.41,4.94,2.74,7.57,3.69c1.39,0.5,3.13,0.39,4.64,0.12   c2.64-0.47,4.65-1.97,5.32-4.73c0.65-2.67-0.38-4.93-2.49-6.43c-2.22-1.58-4.72-2.78-7.13-4.09c-2.28-1.24-4.72-2.2-6.87-3.63   c-4.84-3.22-6.89-8.27-5.73-13.44c1.16-5.2,5.39-9,11.1-9.88c5.43-0.83,10.48,0.28,15.18,3.1c1.38,0.83,2.15,1.69,1.08,3.41   c-1.99,3.22-2.43,3.55-4.53,2.39c-2.91-1.61-5.83-3.14-9.32-2.92c-3.28,0.2-5.84,1.91-6.6,4.47c-0.79,2.67,0.24,5.39,3.07,7.31   c1.68,1.14,3.58,1.95,5.4,2.88c2.52,1.27,5.18,2.32,7.58,3.8c5.71,3.53,7.96,8.53,6.63,14.09c-1.28,5.35-6.17,9.32-12.39,10.04   C389.37,195.79,388.43,195.79,387.68,195.83z"></path>
	<path fill-rule="evenodd" clip-rule="evenodd" fill="#FFFFFF" d="M711.32,263.94c2.54-0.44,4.71-0.25,5.88,1.8   c2.51-0.34,4.74-0.9,6.97-0.88c4.54,0.03,7.83,2.43,8.64,6.87c0.65,3.57,0.84,7.39,0.37,10.98c-0.88,6.66-5.98,9.71-12.58,8.09   c-0.98-0.24-1.93-0.58-3.12-0.95c0,5,0,9.83,0,14.85c-2.12,0-4.04,0-6.17,0C711.32,291.19,711.32,277.64,711.32,263.94z    M717.45,277.95c0,0.94-0.04,1.88,0.01,2.82c0.07,1.22-0.22,2.74,0.39,3.61c1.58,2.27,7.56,1.41,8.57-1.2   c1.3-3.39,1.26-6.94,0.03-10.35c-0.8-2.21-3.17-2.87-6.25-2.32c-2.33,0.42-3.08,1.67-2.78,3.92   C717.58,275.58,717.45,276.78,717.45,277.95z"></path>
	<path fill-rule="evenodd" clip-rule="evenodd" fill="#FFFFFF" d="M720.64,166.22c0,5.27,0.15,10.54-0.03,15.81   c-0.34,9.88-8.79,16.12-17.85,13.13c-2.07-0.68-3.88-2.26-5.71-3.57c-1.19-0.85-1.14-1.95-0.05-2.98c0.57-0.54,1.08-1.14,1.61-1.73   c0.92-1.03,1.79-1.05,2.78-0.01c2.17,2.27,4.71,3.52,7.83,2.14c3.22-1.42,4.31-4.26,4.33-7.51c0.07-10.3,0.04-20.6,0.05-30.9   c0-3.04,0.04-3.07,2.97-3.08c0.55,0,1.11,0.05,1.65-0.01c1.83-0.18,2.52,0.58,2.49,2.44c-0.08,5.42-0.03,10.85-0.03,16.28   C720.66,166.22,720.65,166.22,720.64,166.22z"></path>
	<path fill-rule="evenodd" clip-rule="evenodd" fill="#FFFFFF" d="M735.93,277.93c0-0.63-0.04-1.26,0-1.89   c0.62-8.75,5.73-12.62,14.37-10.95c3.97,0.77,6.8,3.05,7.33,7c0.52,3.83,0.67,7.87,0.02,11.66c-0.97,5.66-6.2,8.33-12.86,7.3   c-4.9-0.76-7.73-3.52-8.52-8.42c-0.25-1.55-0.34-3.12-0.5-4.68C735.83,277.93,735.88,277.93,735.93,277.93z M751.96,278.1   c-0.05,0-0.09,0-0.14,0c0-1.1,0.09-2.2-0.02-3.29c-0.33-3.2-1.66-4.46-4.6-4.48c-2.96-0.02-4.43,1.23-4.7,4.37   c-0.18,2.18-0.18,4.4,0,6.58c0.27,3.16,1.7,4.37,4.7,4.35c2.96-0.02,4.26-1.26,4.61-4.47C751.92,280.14,751.92,279.12,751.96,278.1   z"></path>
	<path fill-rule="evenodd" clip-rule="evenodd" fill="#FFFFFF" d="M684.65,290.5c-2.28,0-4.22,0-6.29,0c0-8.89,0-17.66,0-26.54   c2.51-0.42,4.77-0.43,5.81,1.5c3.42-0.12,6.47-0.58,9.42-0.25c3.57,0.4,5.67,2.82,5.76,6.41c0.17,6.21,0.05,12.43,0.05,18.82   c-2.05,0-4.04,0-6.27,0c0-5.12,0.03-10.14-0.01-15.16c-0.01-1.67,0.54-4-1.58-4.47c-1.93-0.42-4.12,0.14-6.15,0.54   c-0.38,0.07-0.7,1.42-0.71,2.18C684.63,279.11,684.65,284.68,684.65,290.5z"></path>
	<path fill-rule="evenodd" clip-rule="evenodd" fill="#FFFFFF" d="M416.27,171.4c0-7.08,0.06-14.15-0.04-21.22   c-0.03-2.08,0.71-2.93,2.75-2.67c0.08,0.01,0.16,0,0.24,0c4.15-0.02,4.15-0.02,4.15,4.06c0,13.52,0,27.04,0,40.56   c0,3.05-0.01,3.05-3.53,3.05c-3.55,0-3.56-0.01-3.57-3.02C416.27,185.23,416.28,178.32,416.27,171.4z"></path>
	<path fill-rule="evenodd" clip-rule="evenodd" fill="#FFFFFF" d="M767.35,290.27c-5.1,1.01-6.74-0.29-6.74-5.07   c0-10.76,0-21.53,0-32.3c0-0.78,0-1.56,0-2.29c4.17-1.32,6.73,0.5,6.74,4.68C767.36,266.9,767.35,278.53,767.35,290.27z"></path>
	<path fill-rule="evenodd" clip-rule="evenodd" fill="#FFFFFF" d="M675.66,250.31c0,5.57,0,10.98,0,16.4c0,3.46,0,6.93,0,10.39   c-0.01,10.14-6.32,15.47-16.4,13.86c-0.89-0.14-1.77-0.37-2.59-0.9c0.83,0,1.66,0.05,2.49-0.01c5.82-0.38,9.95-4.59,10.02-10.46   c0.1-7.95,0.04-15.9,0.05-23.85C669.23,250.86,670.42,249.79,675.66,250.31z"></path>
	<path fill-rule="evenodd" clip-rule="evenodd" fill="#FFFFFF" d="M667.3,283.97c-3.38,4.27-9.86,6.38-14.24,4.38   c-1.58-0.72-2.82-2.64-3.7-4.29c-0.74-1.39-0.98-3.17-1-4.78c-0.09-9.2-0.05-18.39-0.05-27.59c0-0.45,0.08-0.9,0.12-1.32   c4.85-0.7,6.19,0.42,6.19,5.09c0,7.15-0.01,14.31,0,21.46c0.01,7.33,4.97,10.45,11.69,7.35   C666.51,284.18,666.73,284.14,667.3,283.97z"></path>
	<path fill-rule="evenodd" clip-rule="evenodd" fill="#FFFFFF" d="M702.12,263.87c2.26,0,4.13,0,6.17,0c0,8.84,0,17.6,0,26.38   c-4.14,1.14-6.16-0.32-6.16-4.52C702.12,278.51,702.12,271.29,702.12,263.87z"></path>
	<path fill-rule="evenodd" clip-rule="evenodd" fill="#FFFFFF" d="M709.29,257.79c-0.06,2.17-2.01,4-4.16,3.91   c-2.21-0.1-3.95-2.02-3.83-4.22c0.11-2.13,1.88-3.77,4.04-3.75C707.56,253.74,709.35,255.57,709.29,257.79z"></path>
	<path fill-rule="evenodd" clip-rule="evenodd" fill="#FFFFFF" d="M736.29,305.04c-0.78-0.98-1.63-2.04-2.74-3.43   c-0.31,1.33-0.54,2.29-0.78,3.33c-1.3-1.02-1.46-2.38-0.96-7.5c1.02,0,2.26-0.34,3.08,0.09c0.83,0.44,1.61,1.6,1.75,2.53   C736.84,301.49,736.47,302.99,736.29,305.04z"></path>
	<path fill-rule="evenodd" clip-rule="evenodd" fill="#FFFFFF" d="M748.79,302.24c-0.49,1.08-0.84,1.85-1.2,2.62   c-0.27-0.86-0.7-1.71-0.77-2.59c-0.12-1.4-0.01-2.81,0.02-4.22c0-0.14,0.12-0.28,0.18-0.42c3.02-0.58,4.59-0.08,4.83,1.66   C752.19,301.72,750.5,302.13,748.79,302.24z"></path>
	<path fill-rule="evenodd" clip-rule="evenodd" fill="#FFFFFF" d="M761.21,301.07c0-2.56,0.88-3.75,2.79-3.79   c1.9-0.04,3.31,1.53,3.34,3.73c0.04,2.08-1.44,3.93-3.17,3.99C762.28,305.06,761.21,303.64,761.21,301.07z M762.02,300.95   c0.86,1.12,1.4,1.82,1.94,2.53c0.51-0.8,1.38-1.57,1.43-2.4c0.05-0.76-0.77-1.57-1.22-2.36   C763.55,299.38,762.91,300.04,762.02,300.95z"></path>
	<path fill-rule="evenodd" clip-rule="evenodd" fill="#FFFFFF" d="M729.24,298.86c-2-0.08-4.24-0.7-3.96,2.22   c0.08,0.81,0.54,1.85,1.17,2.26c0.92,0.6,1.63-0.44,0.88-1.3c-0.27-0.31-0.64-0.52-1.56-1.25c1.5-0.1,2.34-0.15,3.16-0.2   c0.49,3.76,0.22,4.53-1.85,4.34c-1.06-0.1-2.76-0.99-2.89-1.75c-0.28-1.63-0.09-3.57,0.62-5.03c0.31-0.65,2.36-0.5,3.62-0.59   C728.63,297.53,728.87,298.22,729.24,298.86z"></path>
	<path fill-rule="evenodd" clip-rule="evenodd" fill="#FFFFFF" d="M754.39,297.42c1.84,0.05,4.06-0.72,4.62,1.91   c0.51,2.4-1.34,2.81-3.15,2.92c-0.27,0.96-0.52,1.82-0.76,2.68c-0.24-0.03-0.47-0.05-0.71-0.08   C754.39,302.46,754.39,300.08,754.39,297.42z"></path>
	<path fill-rule="evenodd" clip-rule="evenodd" fill="#FFFFFF" d="M744.45,297.5c0,1.78,0.3,3.64-0.12,5.32   c-0.22,0.89-1.68,2.04-2.57,2.03c-0.9-0.01-2.32-1.18-2.54-2.09c-0.41-1.68-0.12-3.53-0.12-5.31c0.22-0.07,0.44-0.14,0.66-0.21   c0.25,0.41,0.67,0.81,0.72,1.24c0.11,0.93-0.12,1.92,0.08,2.82c0.17,0.77,0.75,1.45,1.15,2.17c0.44-0.75,1.08-1.45,1.28-2.26   c0.22-0.89-0.01-1.88,0.08-2.81c0.04-0.4,0.43-0.76,0.66-1.13C743.96,297.34,744.21,297.42,744.45,297.5z"></path>
</g>
</svg>
